<?xml version="1.0" encoding="utf-8"?>
<!-- Generator: Adobe Illustrator 26.1.0, SVG Export Plug-In . SVG Version: 6.00 Build 0)  -->
<svg version="1.1" id="Layer_1" xmlns="http://www.w3.org/2000/svg" xmlns:xlink="http://www.w3.org/1999/xlink" x="0px" y="0px"
	 viewBox="0 0 1125.87 576.81" style="enable-background:new 0 0 1125.87 576.81;" xml:space="preserve">
<style type="text/css">
	.st0{fill-rule:evenodd;clip-rule:evenodd;fill:#606060;}
	.st1{fill-rule:evenodd;clip-rule:evenodd;fill:#8C8C8C;}
	.st2{fill-rule:evenodd;clip-rule:evenodd;fill:#333333;}
	.st3{fill-rule:evenodd;clip-rule:evenodd;fill:#E8E8E8;}
	.st4{fill:#606060;}
</style>
<path class="st0" d="M280,534.02c64.5-73.28,144.22-130.34,243.63-159.49C479.93,261.59,398.76,174.43,280,112.95
	C161.23,174.43,80.06,261.59,36.43,374.53C135.61,403.4,214.71,461.47,280,534.02L280,534.02z"/>
<path class="st1" d="M280,534.02c-35.19-153.45-35.19-293.81,0-421.08c118.76,61.48,199.94,148.64,243.63,261.58
	C423.49,403.79,344,461.07,280,534.02L280,534.02z"/>
<path class="st0" d="M465.17,365.47c-52.81,22.77-101.37,52.31-145.95,87.83c-10.07-81.96-10.68-164.64,1.73-246.2
	C380.41,249.5,429.31,301.58,465.17,365.47L465.17,365.47z"/>
<path class="st2" d="M311.72,325.14c0.34-39.44,3.3-78.88,9.23-118.04c59.47,42.4,108.36,94.49,144.22,158.37
	C415.77,342.25,364.64,328.83,311.72,325.14L311.72,325.14z"/>
<path class="st1" d="M149.04,205.14c-61.7,94.04-45.54,177.95,48.45,251.91c-47.1-36.19-100.3-64.84-161.11-82.51
	C61.54,309.53,99.08,253.08,149.04,205.14L149.04,205.14z"/>
<path class="st3" d="M444.97,277.75C385,190.54,284.98,116.02,278.71,291.63c-0.56-52.03,5.59-101.48,18.63-148.41
	C362.62,177,411.85,221.87,444.97,277.75L444.97,277.75z"/>
<g>
	<path class="st4" d="M585.27,223.37l-2.22,7.27c-0.37,1.62-0.96,3.78-1.78,6.5c-4,13.88-7.28,22.98-9.85,27.32
		c-0.51,0.88-1.47,2.17-2.86,3.86c-4.77,4.34-10.56,6.51-17.39,6.51c-5.43,0-9.79-1.19-13.1-3.58c-3.3-2.39-4.95-5.45-4.95-9.2
		c0-2.72,0.96-7.58,2.87-14.6c1.91-7.01,4.05-13.68,6.41-19.99c-5.75-1.1-8.62-3.56-8.62-7.39c0-2.72,0.9-5.79,2.69-9.2
		c1.8-3.42,4.05-6.49,6.76-9.2c2.71-2.72,5.35-4.48,7.92-5.29c1.1-3.16,3.2-9.8,6.29-19.94c6.98-21.96,12.64-36.68,16.98-44.18
		c1.76-2.5,3.27-4.44,4.52-5.84c3.82-3.6,8.71-5.4,14.66-5.4c3.67,0,6.93,0.64,9.76,1.93c2.83,1.29,5,3.05,6.51,5.29
		c1.51,2.24,2.26,4.87,2.26,7.88c0,4.19-5.25,21.78-15.76,52.77c-0.15,0.51-0.38,1.27-0.72,2.26c-0.33,0.99-0.64,1.89-0.94,2.7
		l-0.44,0.88l40.63-0.88l1.98-6.94c2.28-7.49,4.66-14.89,7.16-22.2c2.5-7.31,4.64-13.18,6.44-17.63c1.8-4.44,3.62-8.35,5.47-11.73
		c1.85-3.38,3.58-5.91,5.2-7.6c3.84-4.19,9.11-6.28,15.83-6.28c11.47,0,17.2,4.96,17.2,14.87c0,9.33-5,26.34-14.98,51.05
		c-1.48,3.65-2.36,5.88-2.66,6.68c0.29-0.07,0.55-0.13,0.76-0.17c0.22-0.04,0.47-0.05,0.77-0.05c4.01,0,7.18,0.72,9.51,2.15
		c2.33,1.43,3.5,3.36,3.5,5.79c0,1.62-0.99,3.94-2.96,6.95c-1.98,3.02-4.08,5.68-6.31,8c-2.23,2.32-4.15,3.95-5.76,4.91
		c-1.54,0.81-4.53,1.66-8.99,2.54l-0.44,1.76c-0.52,1.1-1.29,3.12-2.32,6.06c-1.55,4.26-3.13,8.53-4.75,12.83
		c-1.62,4.3-2.96,7.63-4.03,10.02c-1.07,2.39-2.12,4.38-3.15,6c-1.25,1.76-2.68,3.27-4.3,4.51c-3.53,2.71-7.58,4.93-12.14,6.66
		c-4.56,1.72-8.35,2.59-11.37,2.59c-3.46,0-6.18-0.85-8.17-2.53s-2.98-4.08-2.98-7.16c0-5.29,2.76-16.27,8.28-32.94
		c1.31-3.67,2.21-6.35,2.72-8.04L585.27,223.37z"/>
	<path class="st4" d="M740.25,242.32c0.81,4.41,3.67,6.61,8.59,6.61c5.51,0,12.67-3.23,21.48-9.7c5.14-3.75,8.59-5.62,10.36-5.62
		c2.2,0,4.26,0.59,6.17,1.76c1.91,1.18,2.86,2.39,2.86,3.64c0,1.32-1.07,3.05-3.19,5.18c-3.89,3.89-8.37,7.7-13.44,11.4
		c-5.07,3.71-9.95,6.8-14.65,9.25c-4.7,2.46-9.4,4.41-14.1,5.84c-4.7,1.43-8.89,2.15-12.56,2.15c-9.18,0-16.53-2.63-22.03-7.88
		c-5.51-5.25-8.26-12.25-8.26-20.99c0-6.68,1.45-14.23,4.35-22.64c2.9-8.41,6.81-16.29,11.73-23.63
		c5.8-8.59,12.93-15.76,21.37-21.48c10.43-6.9,20.42-10.36,29.97-10.36c6.9,0,12.32,2.19,16.25,6.56
		c3.93,4.37,5.89,10.38,5.89,18.01c0,5.95-1.56,12.16-4.68,18.62c-3.12,6.46-7.73,12.67-13.83,18.62c-5,5-9.9,8.89-14.71,11.68
		c-4.81,2.79-9.02,4.19-12.61,4.19C743.59,243.53,741.94,243.13,740.25,242.32z M740.03,238.79c3.38-2.28,5.95-4.55,7.71-6.83
		c3.89-4.77,6.9-10.25,9.03-16.42c1.69-4.04,3.01-8.56,3.97-13.55c0.95-4.99,1.43-9.66,1.43-13.99c0-4.04-0.85-6.06-2.53-6.06
		c-2.35,0-5.95,5.18-10.8,15.53c-2.86,6.24-5.2,12.47-7,18.67c-1.8,6.21-2.7,11.55-2.7,16.03
		C739.15,233.73,739.44,235.93,740.03,238.79z"/>
	<path class="st4" d="M918.51,233.18l-30.08,30.85c-3.89,3.89-7.03,6.56-9.42,7.99c-2.39,1.43-5.01,2.15-7.88,2.15
		c-4.48,0-8.25-1.67-11.29-5.01c-3.05-3.34-4.57-7.44-4.57-12.28c0-3.01,0.46-6.3,1.38-9.86c0.92-3.56,2.74-8.87,5.45-15.92
		c0.51-1.47,1.01-2.73,1.49-3.8c0.48-1.06,0.86-1.96,1.16-2.7l-0.44-0.44c-7.13,7.49-14.1,15.39-20.93,23.69
		c-5.73,6.83-10.28,11.94-13.66,15.31c-3.38,3.38-6.43,5.91-9.14,7.6c-2.72,1.69-5.14,2.53-7.27,2.53c-4.78,0-8.56-1.87-11.35-5.62
		c-2.79-3.75-4.19-8.85-4.19-15.31c0-8.15,3.53-21.34,10.58-39.55c6.32-16.16,11.2-26.99,14.65-32.5
		c5.06-7.64,10.86-11.46,17.4-11.46c3.96,0,7.25,0.94,9.85,2.81c2.61,1.87,3.91,4.31,3.91,7.32c0,5.51-2.09,13.91-6.25,25.22
		c-1.61,4.18-3.25,8.92-4.94,14.2l0.44,0.44c2.71-3.01,7.08-8.18,13.1-15.53c10.35-12.77,18.16-21.47,23.46-26.1
		c6.83-6.31,13.08-9.47,18.73-9.47c2.5,0,4.89,0.85,7.16,2.54c2.28,1.69,4.09,3.95,5.46,6.78c1.36,2.83,2.04,5.78,2.04,8.87
		c0,3.16-2.27,11.24-6.81,24.25c-0.95,2.72-1.68,4.85-2.19,6.39c-0.51,1.54-0.99,2.87-1.43,3.97l0.55,0.44
		c1.03-1.03,1.94-1.95,2.75-2.75c0.81-0.81,1.7-1.67,2.69-2.59c0.99-0.92,1.92-1.78,2.8-2.59c1.98-1.91,6.97-6.94,14.96-15.1
		c5.28-5.88,9.42-9.9,12.44-12.07c3.01-2.17,5.91-3.25,8.7-3.25c4.55,0,8.02,1.56,10.41,4.68c2.39,3.12,3.58,7.73,3.58,13.83
		c0,3.75-0.59,9.66-1.76,17.74c-1.03,9.11-1.75,16.25-2.15,21.43c-0.4,5.18-0.61,8.8-0.61,10.85c0,1.54,0.09,3.51,0.28,5.89
		c0.18,2.39,0.5,4.94,0.94,7.66c0.44,2.72,1.03,5.73,1.76,9.03c0.88,4.04,1.47,7.2,1.76,9.48c-0.59,2.64-2.52,4.88-5.78,6.72
		c-3.27,1.83-6.81,2.75-10.63,2.75c-6.02,0-11.68-2.72-16.97-8.15c-2.35-2.5-4.17-5.01-5.45-7.55c-1.29-2.53-2.2-5.54-2.75-9.03
		c-0.55-3.49-0.83-8.1-0.83-13.83c0-3.75,0.44-11.49,1.32-23.25l-0.44-0.44L918.51,233.18z"/>
	<path class="st4" d="M1047.74,241v0.44l-0.44-0.44c-6.83,8.01-13.09,14.56-18.78,19.67c-5.69,5.11-10.95,8.94-15.76,11.51
		c-4.81,2.57-9.24,3.86-13.28,3.86c-8.23,0-15.02-2.75-20.38-8.26c-5.36-5.51-8.04-12.49-8.04-20.93c0-5.21,1.32-11.38,3.97-18.51
		c2.64-7.12,6.28-14.1,10.91-20.93c7.71-11.16,17.41-20.64,29.09-28.42c12.04-8.01,23.65-12.01,34.81-12.01
		c9.4,0,17.13,1.93,23.19,5.78s9.09,8.72,9.09,14.6c0,4.33-1.51,8.92-4.52,13.77c3.97,0,6.46,0.42,7.49,1.27
		c1.03,0.85,1.54,2.81,1.54,5.89c0-0.29-0.18,1.21-0.55,4.52c-0.44,7.27-0.66,14.07-0.66,20.38c0,3.3,0.04,5.8,0.11,7.49
		c0.07,1.69,0.22,3.64,0.44,5.84c0.22,2.2,0.44,3.97,0.66,5.29c0.59,3.45,1.54,6.87,2.86,10.25c-4.41,4.33-8.63,7.51-12.67,9.53
		c-4.04,2.02-8.15,3.03-12.34,3.03c-11.31,0-16.97-9.48-16.97-28.43C1047.52,243.97,1047.59,242.25,1047.74,241z M1054.35,215.77
		l-2.09,0.66c-5.29,1.47-9.11,2.2-11.46,2.2c-2.86,0-4.3-0.73-4.3-2.2c0-0.51,0.59-1.87,1.76-4.08c4.11-6.24,6.17-12.12,6.17-17.63
		c0-3.16-0.55-6.04-1.65-8.65c-1.1-2.61-2.31-3.91-3.64-3.91c-1.18,0-2.98,1.25-5.4,3.75c-6.83,7.42-12.25,15.02-16.25,22.81
		c-4,7.79-6,14.73-6,20.82c0,4.04,0.83,7.38,2.48,10.03c1.65,2.64,3.73,3.97,6.23,3.97c2.13,0,6.12-2.28,11.95-6.83
		c5.84-4.55,12.39-10.58,19.67-18.07l2.97-2.42L1054.35,215.77z"/>
</g>
<g>
	<path d="M585.27,397.45l-2.22,7.27c-0.37,1.62-0.96,3.78-1.78,6.5c-4,13.88-7.28,22.98-9.85,27.32c-0.51,0.88-1.47,2.17-2.86,3.86
		c-4.77,4.34-10.56,6.51-17.39,6.51c-5.43,0-9.79-1.19-13.1-3.58c-3.3-2.38-4.95-5.45-4.95-9.2c0-2.72,0.96-7.58,2.87-14.6
		c1.91-7.01,4.05-13.68,6.41-19.99c-5.75-1.1-8.62-3.56-8.62-7.39c0-2.72,0.9-5.79,2.69-9.2c1.8-3.42,4.05-6.48,6.76-9.2
		c2.71-2.72,5.35-4.48,7.92-5.29c1.1-3.16,3.2-9.8,6.29-19.94c6.98-21.96,12.64-36.68,16.98-44.18c1.76-2.5,3.27-4.44,4.52-5.84
		c3.82-3.6,8.71-5.4,14.66-5.4c3.67,0,6.93,0.64,9.76,1.93c2.83,1.29,5,3.05,6.51,5.29c1.51,2.24,2.26,4.87,2.26,7.88
		c0,4.19-5.25,21.78-15.76,52.77c-0.15,0.52-0.38,1.27-0.72,2.26c-0.33,0.99-0.64,1.89-0.94,2.7l-0.44,0.88l40.63-0.88l1.98-6.94
		c2.28-7.49,4.66-14.89,7.16-22.2c2.5-7.31,4.64-13.18,6.44-17.63c1.8-4.44,3.62-8.35,5.47-11.73c1.85-3.38,3.58-5.91,5.2-7.6
		c3.84-4.19,9.11-6.28,15.83-6.28c11.47,0,17.2,4.96,17.2,14.87c0,9.33-5,26.34-14.98,51.05c-1.48,3.65-2.36,5.88-2.66,6.68
		c0.29-0.07,0.55-0.13,0.76-0.17c0.22-0.04,0.47-0.05,0.77-0.05c4.01,0,7.18,0.72,9.51,2.15c2.33,1.43,3.5,3.36,3.5,5.79
		c0,1.62-0.99,3.94-2.96,6.95c-1.98,3.02-4.08,5.68-6.31,8c-2.23,2.32-4.15,3.95-5.76,4.91c-1.54,0.81-4.53,1.66-8.99,2.54
		l-0.44,1.76c-0.52,1.1-1.29,3.12-2.32,6.06c-1.55,4.26-3.13,8.53-4.75,12.83c-1.62,4.29-2.96,7.63-4.03,10.02
		c-1.07,2.38-2.12,4.38-3.15,6c-1.25,1.76-2.68,3.27-4.3,4.51c-3.53,2.71-7.58,4.93-12.14,6.66c-4.56,1.72-8.35,2.59-11.37,2.59
		c-3.46,0-6.18-0.85-8.17-2.53s-2.98-4.08-2.98-7.16c0-5.29,2.76-16.27,8.28-32.94c1.31-3.67,2.21-6.35,2.72-8.04L585.27,397.45z"/>
	<path d="M775.5,336.31c10.94,0,16.42,1.29,16.42,3.86c0,2.94-2.46,4.52-7.38,4.74c-5.95,0.37-11.5,2.06-16.64,5.07
		c-5.14,3.01-9.71,7.13-13.72,12.34c-4,5.22-7.13,11.09-9.36,17.63c-2.24,6.54-3.36,13.44-3.36,20.71c0,8.01,1.87,14.45,5.62,19.34
		c3.75,4.88,8.63,7.33,14.65,7.33c5.58,0,10.47-2.86,14.65-8.59c4.19-5.73,6.28-12.41,6.28-20.05c0-6.24-1.31-12.1-3.91-17.57
		c-2.61-5.47-6.41-10.08-11.4-13.83c-2.13-1.69-3.19-2.9-3.19-3.64c0-1.03,1.5-2.61,4.52-4.74c3.38-2.28,7.16-4.19,11.35-5.73
		c4.19-1.54,7.71-2.31,10.58-2.31c3.3,0,6.44,0.86,9.42,2.59c2.97,1.73,5.6,4.19,7.88,7.38c2.28,3.2,4.02,6.87,5.23,11.02
		c1.21,4.15,1.82,8.58,1.82,13.28c0,7.79-1.47,15.48-4.41,23.08c-2.94,7.6-6.79,13.76-11.57,18.45
		c-6.17,5.95-13.61,10.82-22.31,14.6c-8.7,3.78-16.99,5.67-24.84,5.67c-7.64,0-15.22-1.32-22.75-3.97
		c-7.53-2.65-13.5-6.13-17.9-10.47c-5.88-5.88-8.81-14.21-8.81-25.01c0-8.52,2.09-17.04,6.28-25.56
		c4.19-8.52,9.86-16.25,17.02-23.19c7.16-6.94,15.06-12.41,23.69-16.42C757.97,338.31,766.69,336.31,775.5,336.31z"/>
	<path d="M876.85,374.96l3.42-6.42c3.24-5.69,6.23-10.43,9-14.24c2.76-3.8,5.21-6.59,7.34-8.37c2.14-1.77,4.67-3.21,7.62-4.32
		c2.43-0.96,5.08-1.44,7.95-1.44c5.59,0,10.54,1.65,14.85,4.96c4.3,3.31,7.62,8.04,9.94,14.21c2.32,6.17,3.48,13.26,3.48,21.26
		c0,11.53-2.59,22.6-7.77,33.22c-5.18,10.61-11.98,19.19-20.39,25.73c-8.41,6.54-17.1,9.8-26.06,9.8c-5.22,0-9.57-1.1-13.06-3.31
		c-3.49-2.2-6.71-5.99-9.64-11.35l-0.75,1.88l-0.66,2.42c-4.77,15.35-8.58,26.64-11.4,33.88c-2.83,7.23-5.27,11.66-7.33,13.28
		c-1.62,1.54-3.49,2.31-5.62,2.31c-4.19,0-7.46-2.06-9.8-6.17c-2.35-4.11-3.53-9.88-3.53-17.3c0-8.08,0.88-17.78,2.64-29.09
		s4.2-22.84,7.33-34.59c3.12-11.75,6.59-22.44,10.39-32.06c2.49-5.88,5.23-11.02,8.23-15.42c3-4.41,5.85-7.6,8.56-9.58
		c1.98-1.17,4.1-1.76,6.37-1.76c3.37,0,5.97,0.92,7.8,2.77c1.83,1.85,2.75,4.47,2.75,7.87c0,2.88-0.29,6.06-0.88,9.53
		c-0.44,3.4-0.85,7.32-1.21,11.75L876.85,374.96z M868.49,421.91c2.05,6.02,5.95,9.03,11.68,9.03c4.04,0,7.8-1.82,11.29-5.45
		c3.49-3.63,6.28-8.56,8.37-14.76c2.09-6.21,3.14-12.72,3.14-19.56c0-5.43-0.42-10.14-1.27-14.1c-0.85-3.97-1.78-5.95-2.81-5.95
		c-0.74,0-2.61,1.95-5.62,5.84c-3.01,3.9-6.02,8.41-9.03,13.55c-6.17,9.99-10.84,18.8-13.99,26.44
		C869.44,418.94,868.86,420.59,868.49,421.91z"/>
	<path d="M987.04,416.41c0.81,4.41,3.67,6.61,8.59,6.61c5.51,0,12.67-3.23,21.48-9.7c5.14-3.75,8.59-5.62,10.36-5.62
		c2.2,0,4.26,0.59,6.17,1.76c1.91,1.18,2.86,2.39,2.86,3.64c0,1.32-1.07,3.05-3.19,5.18c-3.89,3.89-8.37,7.7-13.44,11.4
		c-5.07,3.71-9.95,6.79-14.65,9.25c-4.7,2.46-9.4,4.41-14.1,5.84c-4.7,1.43-8.89,2.15-12.56,2.15c-9.18,0-16.53-2.63-22.03-7.88
		c-5.51-5.25-8.26-12.25-8.26-20.99c0-6.68,1.45-14.23,4.35-22.64c2.9-8.41,6.81-16.29,11.73-23.63
		c5.8-8.59,12.93-15.75,21.37-21.48c10.43-6.9,20.42-10.36,29.97-10.36c6.9,0,12.32,2.19,16.25,6.56
		c3.93,4.37,5.89,10.38,5.89,18.01c0,5.95-1.56,12.16-4.68,18.62c-3.12,6.46-7.73,12.67-13.83,18.62c-5,4.99-9.9,8.89-14.71,11.68
		c-4.81,2.79-9.02,4.18-12.61,4.18C990.38,417.62,988.73,417.21,987.04,416.41z M986.82,412.88c3.38-2.28,5.95-4.55,7.71-6.83
		c3.89-4.77,6.9-10.25,9.03-16.42c1.69-4.04,3.01-8.56,3.97-13.55c0.95-4.99,1.43-9.66,1.43-13.99c0-4.04-0.85-6.06-2.53-6.06
		c-2.35,0-5.95,5.18-10.8,15.53c-2.86,6.24-5.2,12.47-7,18.67c-1.8,6.21-2.7,11.55-2.7,16.03
		C985.93,407.81,986.23,410.01,986.82,412.88z"/>
</g>
</svg>
